/* XPM */
static char *cat_2[] = {
/* columns rows colors chars-per-pixel */
"64 62 228 2 ",
"   c #0D0A12",
".  c #0F0E19",
"X  c #110E16",
"o  c #100F19",
"O  c #131017",
"+  c #14121B",
"@  c #19161D",
"#  c #1B181F",
"$  c #151623",
"%  c #171725",
"&  c #1B1A23",
"*  c #161A2C",
"=  c #1A1E31",
"-  c #221E24",
";  c #1E202D",
":  c #1E2233",
">  c #242127",
",  c #2B2325",
"<  c #24232C",
"1  c #2A262A",
"2  c #2C292D",
"3  c #352726",
"4  c #342C2B",
"5  c #3B322D",
"6  c #222533",
"7  c #262935",
"8  c #2C2C34",
"9  c #222638",
"0  c #252A3B",
"q  c #292E3E",
"w  c #332E32",
"e  c #2E313C",
"r  c #353133",
"t  c #3B3432",
"y  c #33343B",
"u  c #3B373A",
"i  c #3D3A3A",
"p  c #47352C",
"a  c #4C342F",
"s  c #433B34",
"d  c #473C36",
"f  c #6E3B27",
"g  c #494138",
"h  c #4C443B",
"j  c #544B3D",
"k  c #584839",
"l  c #5C4C38",
"z  c #68462E",
"x  c #7A462D",
"c  c #644A36",
"v  c #6D4E32",
"b  c #764C33",
"n  c #63543C",
"m  c #6B553B",
"M  c #735333",
"N  c #775636",
"B  c #7B5A36",
"V  c #7C5C3B",
"C  c #7E613D",
"Z  c #292F40",
"A  c #2D3242",
"S  c #313644",
"D  c #353946",
"F  c #3B3C45",
"G  c #353C4B",
"H  c #433E41",
"J  c #3C424D",
"K  c #3A4453",
"L  c #394355",
"P  c #3C4A5D",
"I  c #3D4D61",
"U  c #3F5167",
"Y  c #474548",
"T  c #554942",
"R  c #534C43",
"E  c #595448",
"W  c #454B55",
"Q  c #4A525A",
"!  c #575857",
"~  c #665A44",
"^  c #765C43",
"/  c #645750",
"(  c #5D625C",
")  c #6A6249",
"_  c #796648",
"`  c #696759",
"'  c #786955",
"]  c #7B7456",
"[  c #404F61",
"{  c #465869",
"}  c #555E62",
"|  c #445C74",
" . c #4A5F72",
".. c #5A6569",
"X. c #49637A",
"o. c #556A77",
"O. c #5B747A",
"+. c #656866",
"@. c #6A7769",
"#. c #78776C",
"$. c #647A74",
"%. c #8C4A2D",
"&. c #875B38",
"*. c #945937",
"=. c #83633E",
"-. c #8C643D",
";. c #92613B",
":. c #865D41",
">. c #846442",
",. c #876746",
"<. c #8B6A44",
"1. c #846A4B",
"2. c #8B6D4A",
"3. c #946B44",
"4. c #996C45",
"5. c #936B48",
"6. c #8D714D",
"7. c #93724D",
"8. c #9C734C",
"9. c #9C784F",
"0. c #876D51",
"q. c #8E7352",
"w. c #887758",
"e. c #937652",
"r. c #9B7551",
"t. c #957955",
"y. c #9B7A54",
"u. c #94775A",
"i. c #957C5B",
"p. c #9A7D5B",
"a. c #A27C53",
"s. c #A17B55",
"d. c #8A7A64",
"f. c #947D62",
"g. c #817D74",
"h. c #76866A",
"j. c #71886F",
"k. c #6B877A",
"l. c #778B73",
"z. c #8B805D",
"x. c #92855E",
"c. c #9B815E",
"v. c #A78156",
"b. c #A3835C",
"n. c #A9855A",
"m. c #AB895E",
"M. c #B08D5F",
"N. c #888767",
"B. c #958264",
"V. c #9B8363",
"C. c #958867",
"Z. c #9B8669",
"A. c #9D896B",
"S. c #8A916E",
"D. c #918671",
"F. c #9A8A72",
"G. c #909272",
"H. c #989676",
"J. c #A58B65",
"K. c #AD8D62",
"L. c #A48C6B",
"P. c #A98F6A",
"I. c #AA8E6A",
"U. c #A79769",
"Y. c #AD926C",
"T. c #B19468",
"R. c #A69574",
"E. c #AB9573",
"W. c #A3947B",
"Q. c #AC9A7B",
"!. c #B29B74",
"~. c #B19D7C",
"^. c #9EA078",
"/. c #B4A36E",
"(. c #AAA478",
"). c #B8A877",
"_. c #C4AD75",
"`. c #C5B17E",
"'. c #4B6B86",
"]. c #4D718E",
"[. c #577687",
"{. c #507189",
"}. c #567A93",
"|. c #667B85",
" X c #5B838F",
".X c #5A8698",
"XX c #758989",
"oX c #6C938B",
"OX c #76928F",
"+X c #688B98",
"@X c #689698",
"#X c #75979A",
"$X c #5C90A4",
"%X c #679AA5",
"&X c #779AA3",
"*X c #6AA2AC",
"=X c #77A4AC",
"-X c #66A3B2",
";X c #6BA6B2",
":X c #77AAB2",
">X c #8B968B",
",X c #A79B83",
"<X c #97A699",
"1X c #ACA286",
"2X c #B4A384",
"3X c #B6A98A",
"4X c #B2AF91",
"5X c #B7AD93",
"6X c #BBB49A",
"7X c #829EA2",
"8X c #85A4A8",
"9X c #96ABA5",
"0X c #9BB2AD",
"qX c #99B4B0",
"wX c #A7B6AA",
"eX c #BBBBA6",
"rX c #A8BAB0",
"tX c #B3BEB0",
"yX c #C0AF81",
"uX c #C6B587",
"iX c #C6BC99",
"pX c #C4BEA5",
"aX c #BDC1AF",
"sX c #BCC2B1",
"dX c #C7C1A6",
"fX c #C8C4AC",
"gX c #C6C5B0",
"hX c #C8C5B0",
/* pixels */
"o O O .   + +   . @ %   + ; ; * ; < ; > > < 8 5 8 4 > > # @ > @ O O O # @ X X   X X O + @ O @ @ + < @ + + + + + + + +   O + + % ",
"S % O . + + % +   + . . + : ; ; e Y 8 < < 5 s h j h 5 1 < & # @ O @ @ O @ X O O O X X X + + O O O & @ O +   . + % + + + X X + % ",
"9 % O % + % ; : @   + + % ; ; ; 9 y 8 8 i h ~ ] x.z.n s 8 4 > @ @ # > @ # @ O O O O O X X O O @ + # @ @ + % % + @ + + #   .   + ",
"% * + X + + + . + + + + 9 q < < 8 y 8 r h m S.).uX).H.j s t < > # # O @ @ @ @ O O O X X O @ @ @ & & % # % * % % % @ % +   . . % ",
"% O + + . + * +   . + % q e < 7 8 8 8 u j z.uXgXgX).z.h s > > < # @ @ @ @ @ # & @ @ @ O @ & > e 8 9 & % * : 9 : * # # O % + % + ",
"X % . + + + . .     % % : : < < 9 y y Y E B.iXgXgX6X] h 5 4 > > & ; # @ @ @ @ @ + @ @ @ @ @ 8 K e 2 < : = 9 9 : 9 ; : # + # + + ",
"O O + + * + . . . + % ; < : 7 < 8 8 8 y E z.).iXiXU._ h 4 4 ; > & > # # + & @ + # + @ + @ > D Q D 8 A < : 9 9 9 7 : : = * * % # ",
"O ; : + . . . . . + % 9 9 < : 7 < 8 8 y h ) z.T.U.] j h 5 > ; > & @ # & # * * % * + % # > < y { P y A 9 : 9 A A 9 J 9 9 : ; * * ",
"+ % * + .   O . % ; + * = < ; 9 8 9 8 y E N.) ) ) l s t 4 1 < - & # * + + % : = = * + * < 9 J { U J K : : e e e e 9 e 9 : : : : ",
"+ + + + . % % + + % % : : = : : : : 8 8 h ~ h j h s u r 1 1 * * # + # * * % : 9 * * ; 9 9 e J  .| U K 9 9 J W q e 9 9 7 : : : 9 ",
"* + X + + % J O + + * * : ; ; ; : : : ; 7 r r u u r t i 8 < < - 9 + + * * * * : : 7 : 9 J J I { | P P A J J J 9 A A : 9 9 : : : ",
"* * * + + % * + . . + * ; : : : : : : : < < 1 r r r t ` J t * # ; + * : * * * : : 9 e K P  .X.o.X.U K J A 9 A A L A e K : : : * ",
"* * * + O % + . . . * * : A q Z Z : : ; : < < 8 8 8 r i t q 8 9 * # # 7 : : : 9 A A S U | '.O.{  .{ P J e e A J J D D y < < > > ",
"* * % + @ X + + . . * * : : Z q Z : : : ; : 9 7 1 y 8 < < < 9 * * + * # 7 : e A L L I X..X'.o.{  . .X.U J J J J J F y 8 8 2 2 < ",
"* % & a f p & + . * : = : Z q Z e : * * : : : 7 9 y 8 > - * - * * # * * : A A A L P | ].].X.o.o.o.X.{.U J J K K K J F y r r y y ",
"= & p %.*.&.v < % : : : Z Z S : : : : * : : < e 9 < > ; * * 9 ; * ; * ; : 9 A K L U '.].'.X.o.O.O.O.O.U K K W Q Q J J F i i J F ",
"= * f %.4.4.*.%.- % : A Z Z 9 A : A D = % % = Z 9 7 8 9 : A = 9 8 : : : : : Z L P { '.'.X.X.o.X.O.{.O.U P W Q W W Q W Y Y Y Y Y ",
"= < x *.8.8.4.*.z & : 9 9 : 9 : : Z = 0 9 = 9 Z 9 9 7 7 9 q i t j h : : Z Z G L U U X.'.].X.k.k.k.X.O.{ Q Q Q Q ....! ! W W T T ",
": w %.*.s.s.s.4.*.l i i A T Y e Z 9 : F F = Z Z A A A A u ' 7.3.=.C q q Z J G P U U '.].]. Xk.X.O.o.X.! } } ! } ..+.+...! ! E E ",
"9 t %.%.4.r.4.3.3.&.>.u.V.Y.L.d.l.g.+./ ! Y W ! F 9 J ' p.s.s.s.;.M G G G G J P U U X.]..X X{.'.k.o.o.o...+.....+.D.#.+.! ! ~ l ",
"Z d *.%.5.u.8.5.-.&.4.m.n.n.n.Y.2X2XyX3X,X,XE.I.' ` Z.M.m.Y.p.y.;.x Y K L L P U X.| '..X X Xk.k.O.O.O.o.....` ` @.3XH.h.` ) E n ",
"Z Y *.:.5.u.8.:.&.&.9.s.n.K.I.Y.yX2XE.2X2X3XE.M.T.T.s.s.s.p.p.8.%.z W I P P U | X.'.'..X$X$Xk.k.k.O.O.o...@.@.h.h.G.G.z.' _ _ n ",
"Z S :.4.5.u.5.:.&.3.n.m.T.!.T.~.!.!.M.T.~.2X2X~.~.K.4.3.p.E.5.:.&.l P P U | | '.X.].]..X@Xk.k.k.k.O.$.@.j.h.h.h.S.S.G.h.h.C ) n ",
"Z u %.:.:.0.0.4.s.I.T.K.K.K.n.T.!.M.a.n.T.~.2X2X2X~.s.5.5.p.u.:.&.! |  .U | X.X.].]..X$X@XoXk.oXk.$.l.j.j.l.l.G.G.H.U.z.z.h._ C ",
"q H :.*.*.4.8.M.T.T.T.M.K.K.n.K.!.a.a.a.I.n.2XE.3X3X~.L.2.2.5.5.,.o.'.'.U '.].]. X.X.X@XoX@XoXk.l.j.l.l.l.S.^.(./.)./.U.C.x.z._ ",
"9 T 3.*.*.8.a.M.M.M.M.a.L.Y.s.I.~.a.a.4.y.s.~.I.2X3X2X~.L.:.b *.#.'.'.].].].}.$X$X@X$X@XoXoXoXoXk.h.l.l.^.^.(.)._._._.)./.C.x.z.",
"= b 8.8.8.a.M.M.n.n.a.*.M b f.,X~.I.I.s.3.4.p.p.E.2X2X~.Q.u.:.b +.].}.$X$X$X-X$X*X*X@X*X@XoXoXk.j.j.l.^.<X).`.uXuXuXuX`.)./.U.x.",
"A :.n.s.M.n.a.a.s.p.s.y.0.2.' 6X5X,X2X~.e.3.e.b l c :.J.I.I.u.^ [.}.}.$X-X-X-X-X*X*X;X*X;X@X@Xk.j.l.S.^.).uXuXdXfXfXiXuX_.)./.U.",
"u 5.s.T.T.s.4.a.s.E.n.' g B.q.4XpX5X5X3Xf.E.D.c k m N -.3.y.L.w.}.}.-X-X-X-X-X-X;X*X;X;X*X;XoXj.j.S.U./.`.uXdXhXsXhXhXdXiXuX3X).",
"H s.T.T.s.4.8.a.m.~.K._ j J.0.,XpXpXiX2X,X6Xf.0.T s s.2.7.J.W.,X-X-X-X-X-X-X;X-X*X;X;X;X*X;XoXj.h.G.^./.`.iXhXhXhXhXhXhXgXdXiXiX",
"T s.T.T.s.4.a.a.s.T.!.Y.U.b.6.p.3XiX3X!.I.,X0.5.T j b.(.5X~.Y.W.7X*X-X;X-X:X;X;X:X;X:X:X:X:XoXl.l.S.^./.uXiXgXhXhXhXhXhXgXfXdXiX",
"^ I.I.s.s.a.a.4.s.s.n.m.U.2XY.8.,X2XI.p.s.f.0.p.A.A.R.sXpX3XJ.e.#.%X;X;X:X:X:X:X:X:X:X:X*Xl.l.h.h.S.^.).`.dXdXhXhXhXgXgXgXfXaXeX",
"0.n.n.y.7.s.b.s.s.s.4.s.s.E.I.!.2Xs.*.*.*.0.f.,XeX6X5X5X2X1Xc.-.<.#X:X:X:X:X:X:X;X*X*Xk.( ` h._ ] z.^./._.uXdXfXgXgXgXgXgXgXdX6X",
"r.n.s.8.J.L.L.J.s.s.4.s.I.E.,XyX,X:.x %.f ^ F.,X5X3X(.2X2XY.=.=.=.XX:X:X%X@X=X@X Xo...! E n ) C m h.z./.).`.iXdXhXgXdXgXgXsXaXwX",
"s.s.s.L.E.E.J.r.s.4.s.,X!.E.!.,X2X2Xs.%.u.,X1X1XQ.,XL.E.R.6.C M C @.$X[. ...D.+.E E E E E n n n m ] z.x./.).uXuXdXdXiXdXdXaXwX<X",
"s.8.s.I.I.L.7.&.&.4.!.,X2XI.p.E.2X2Xf.f.,X5X,X,XR.,XL.x.7.=.C M B ~ { P J Y Y Y h Y T T j j n n ~ C ] z.C.U.).3XiXiXiXsXaXaX<XS.",
"m.s.9.s.p.2.3.2.3.f.5X3X~.L.u.L.F.f.5.f.R.,X,X,XW.,XZ.2.C C C C N j S e r y u u g Y h Y h j n n ~ m ) h.h.x.C.(.4X4X4XwXsXrX<X>X",
"s.s.s.8.r.y.s.L.L.W.,XQ.s.u.J.p.f.5.f ^ f.W.F.f.W.W.Z.^ M C >.,.^ t < 8 8 1 5 5 i s g h h j j l n ) ) C C h.S.H.9X<X0XrXaXaXsX0X",
"s.9.s.4.r.u.e.2.u.A.W.,XE.I.5.5.:.f x ^ 0.d.f.V.Z.A.Z.b z B 2.>.~ & < S 8 1 5 5 s s g p g j g j j j n ) C h.h.l.8X<XrXgXgXsXsX9X",
"9.s.4.t.8.s.f.f.f.d.F.L.f.5.>.&.:.0.f.F.0.,.e.f.Z.Z.,.0.=.C C B a & & < 1 w 5 a j T j j g j g g h j n E ) h.@.OX9X>XsXhXhXsXqXOX",
"4.4.4.r.t.r.p.r.c.F.H.f.>.^ <.0.f.2X2X2X,X0.:.0.x.>.^ c 0.,.V v 3 + O @ - 1 a / D.g.0./ h a p p g h h E E / @.&X9X8XfXaXsX9X&X+.",
"4.4.3.2.p.x.Z.Z.u.B.A.F.Z.u.f.L.f.,Xp.E.u.8.b b ' m ^ ^ _ 0.V a @     O @ 1 d u.hXdX3Xd.a a 5 p a h h j ~ E ` XX&X=X9X<X>Xk.OX|.",
"s.s.4.8.r.e.p.p.u.L.u.F.F.f.u.>.f.f.s.f.>.&.b b m _ M _ &.C _ s .     O & 3 a V.pXpX2X^ d d 5 s s s h T E E ! ! ` +.~ l / XX#X8X",
"9.4.9.4.>.>.2.e.A.L.f.C.F.f.d.V 5.:.:.5.N c v M B C M C ,.N n Y @     O & 1 a m F.L.0.T s s 5 a 5 s s h h j T ! ! ..! E +.|.0XwX",
"8.8.7.7.3.>.>.6.B.B.p.A.D.,Xf._ v z z z z z b V C =._ B V m 3 - -   O O @ > 3 3 a c c a a a 5 4 r 5 u g s H T ! |.8XOX+X&XrX0XrX",
"8.-.-.7.7.2.1.,.6.>.q.u.f.F.F.C.w._ v v b N V =.1.C =.C M l @   . O O O @ @ > 1 3 3 3 3 1 3 4 3 3 3 5 i 5 s Y } |.8X0X$X8XsXsXrX",
"8.8.-.8.9.y.t.6.C m N >.w.d.f.d.d.w.=.C B M V =.C C M M h - @   X O @ O O O @ > - 3 1 3 - 3 3 1 3 1 8 r p Y Y ..[.&XrX&X+XrXqX&X",
"n.n.s.s.7.2.2.6.>.C ' ^ _ _ _ m l n z z z M z M M M M M -         O O O O O @ @ # - @ - - - - > - > 1 3 w t D Y { [.8XrX8X&X+X.X",
"8.8.n.8.7.-.=.6.c.c.p.u.u.B.f.u._ 0.' n v M B M M B M n -       X       X O X X O O @ @ - 1 - 1 > > 1 1 8 r F F Q  .+X+X8X=X+X}.",
"8.8.7.5.-.-.6.c.7.c.b.x.C.L.R.C.R.A.L.f.0.>.=.=.C C M M 3       X         O O X O @ O @ @ @ @ # > > 1 - 1 < 8 t K  .[.'..X+X|.}.",
"-.v.v.v.7.=.=.6.6.t.c.x.p.u.t.x.A.A.W.R.A.e.1.6.=.C M z 1                   X   O - X O @ X O @ @ @ - - > > < 8 J { I | '.'.}.+X",
"-.8.8.x.x.6.6.6.6.1.>.C _ e.2.2.e.8.x.B.6.e.x.q.C B M M 1                       X X X X X O     @ - @ @ - ; < : q S K U | '.[.[.",
"-.;.;.-.-.-.1.t.u.q.6.2.c v ^ <.6.<.<.<.6.x.u.6.=.C C C 5                   X   X               @ @ X X @ @ = @ A S G I { I I { ",
"v.8.;.&.=.z.u.C.u.^ >.s.2.^ 0._ 6.B C 6.t.u.q.q.=.6.e.6.j               X X X   X X                   X + @ % = = 9 S S L L L S ",
"M B -.B =.x.V.t.7.n n 2.e.V.Z.f._ 6.B.t.6.6.7.p.J.A.A.6.l             & O O     X X X                 X + + + @ * * : Z S S D Z ",
"1.<.-.=.=.-.-.-.-._ _ V 2.V.V.Z.A.A.u.q.t.u.p.L.U.U.x.6.p           X @ O O X     X                         + @ % % * 9 A Z 9 9 ",
"e.r.9.<.V M b M &.C <.=.V 6.e.L.J.<.=.^ 7.p.L.E.I.x.2.C 3               @ - @ o @ X                         X @ % % % % = = : : ",
"7.<.7.e.e.>.^ V C C <.3.7.u.p.2._ M q.V.I.x.V.V.x.6.=.B 3             X @ 3 a 3 - @                       X X @ . $ % o % * = = ",
"<.>.>.3.e.9.p.y.>.=.-.7.e.,.7.e.t.p.Z.U.I.V.J.A.y.=.C B 3             X + c c.z 1                   o @     @ o . . o o . . % % ",
"<.3.V z v M >.r.y.2.7.2.7.e.>.2.7.u.B.c.e.7.y.e.=.<.-.B -             X > v I.l -                         X @   .   X X . . .   ",
"=.=.>.<.2.q.p.e.p.x.2.2.7.p.t.<.>.<.<.-.-.>.<.7.V.x.7.M #     X @     X @ 3 a 3                                                 ",
"t.e.u.e.e.p.p.p.y.t.&.>.p.V.t.V v M M &.=.=.<.V.u._ =._ -       X X -   X @ # @                                         .       "
};